<svg xmlns="http://www.w3.org/2000/svg" xmlns:xlink="http://www.w3.org/1999/xlink" width="268" height="268" viewBox="0 0 268 268">
  <defs>
    <filter id="Rectangle_1" x="0" y="0" width="268" height="268" filterUnits="userSpaceOnUse">
      <feOffset dy="3" input="SourceAlpha"/>
      <feGaussianBlur stdDeviation="3" result="blur"/>
      <feFlood flood-opacity="0.502"/>
      <feComposite operator="in" in2="blur"/>
      <feComposite in="SourceGraphic"/>
    </filter>
    <filter id="Rectangle_2" x="65" y="107" width="138" height="38" filterUnits="userSpaceOnUse">
      <feOffset dy="3" input="SourceAlpha"/>
      <feGaussianBlur stdDeviation="3" result="blur-2"/>
      <feFlood flood-opacity="0.502"/>
      <feComposite operator="in" in2="blur-2"/>
      <feComposite in="SourceGraphic"/>
    </filter>
    <filter id="Rectangle_3" x="65" y="179" width="138" height="38" filterUnits="userSpaceOnUse">
      <feOffset dy="3" input="SourceAlpha"/>
      <feGaussianBlur stdDeviation="3" result="blur-3"/>
      <feFlood flood-opacity="0.502"/>
      <feComposite operator="in" in2="blur-3"/>
      <feComposite in="SourceGraphic"/>
    </filter>
    <filter id="Rectangle_4" x="65" y="143" width="138" height="38" filterUnits="userSpaceOnUse">
      <feOffset dy="3" input="SourceAlpha"/>
      <feGaussianBlur stdDeviation="3" result="blur-4"/>
      <feFlood flood-opacity="0.502"/>
      <feComposite operator="in" in2="blur-4"/>
      <feComposite in="SourceGraphic"/>
    </filter>
    <filter id="Subtraction_1" x="73" y="47" width="123" height="78" filterUnits="userSpaceOnUse">
      <feOffset dy="3" input="SourceAlpha"/>
      <feGaussianBlur stdDeviation="3" result="blur-5"/>
      <feFlood flood-opacity="0.451"/>
      <feComposite operator="in" in2="blur-5"/>
      <feComposite in="SourceGraphic"/>
    </filter>
  </defs>
  <g id="Group_1" data-name="Group 1" transform="translate(-133 -190)">
    <g transform="matrix(1, 0, 0, 1, 133, 190)" filter="url(#Rectangle_1)">
      <path id="Rectangle_1-2" data-name="Rectangle 1" d="M50,0H250a0,0,0,0,1,0,0V200a50,50,0,0,1-50,50H0a0,0,0,0,1,0,0V50A50,50,0,0,1,50,0Z" transform="translate(9 6)" fill="#32cb00"/>
    </g>
    <g transform="matrix(1, 0, 0, 1, 133, 190)" filter="url(#Rectangle_2)">
      <rect id="Rectangle_2-2" data-name="Rectangle 2" width="120" height="20" transform="translate(74 113)" fill="#fff"/>
    </g>
    <g transform="matrix(1, 0, 0, 1, 133, 190)" filter="url(#Rectangle_3)">
      <rect id="Rectangle_3-2" data-name="Rectangle 3" width="120" height="20" transform="translate(74 185)" fill="#fff"/>
    </g>
    <g transform="matrix(1, 0, 0, 1, 133, 190)" filter="url(#Rectangle_4)">
      <rect id="Rectangle_4-2" data-name="Rectangle 4" width="120" height="20" transform="translate(74 149)" fill="#fff"/>
    </g>
    <g transform="matrix(1, 0, 0, 1, 133, 190)" filter="url(#Subtraction_1)">
      <path id="Subtraction_1-2" data-name="Subtraction 1" d="M.587,60h0A52.749,52.749,0,0,1,0,52.174,51.849,51.849,0,0,1,15.377,15.281a52.669,52.669,0,0,1,74.246,0,52.028,52.028,0,0,1,14.791,44.712C100.585,34.715,78.267,15.652,52.5,15.652S4.413,34.718.587,60Z" transform="translate(82 53)" fill="#fff"/>
    </g>
  </g>
</svg>
